<?xml version="1.0" standalone="no"?>
<!DOCTYPE svg PUBLIC "-//W3C//DTD SVG 20010904//EN"
 "http://www.w3.org/TR/2001/REC-SVG-20010904/DTD/svg10.dtd">
<svg version="1.0" xmlns="http://www.w3.org/2000/svg"
 width="122.000000pt" height="40.000000pt" viewBox="0 0 122.000000 40.000000"
 preserveAspectRatio="xMidYMid meet">

<g transform="translate(0.000000,40.000000) scale(0.100000,-0.100000)"
fill="#000000" stroke="none">
<path d="M87 353 c-9 -8 -9 -196 -1 -217 7 -17 39 -22 49 -7 3 5 1 12 -5 16
-6 4 -10 51 -10 111 0 80 -3 104 -13 104 -8 0 -17 -3 -20 -7z"/>
<path d="M350 239 c0 -109 2 -120 18 -117 11 2 18 14 20 33 5 47 17 49 46 5
17 -25 34 -40 47 -40 l21 0 -22 32 c-43 66 -45 74 -20 105 19 25 20 28 5 31
-9 2 -30 -9 -46 -24 l-29 -28 0 62 c0 55 -2 62 -20 62 -19 0 -20 -7 -20 -121z"/>
<path d="M670 246 c0 -96 3 -116 15 -116 11 0 15 13 15 54 0 59 14 80 52 74
21 -3 23 -9 26 -65 3 -56 5 -63 24 -63 19 0 20 5 16 64 -5 79 -18 96 -72 96
-40 0 -41 1 -41 32 0 23 -5 34 -17 36 -16 3 -18 -7 -18 -112z"/>
<path d="M203 292 c-38 -6 -27 -30 14 -34 48 -4 57 -28 10 -28 -58 0 -88 -57
-49 -93 21 -19 63 -22 79 -6 8 8 13 8 17 0 4 -6 13 -11 20 -11 11 0 13 16 9
68 -3 37 -9 74 -14 83 -9 17 -48 27 -86 21z m55 -109 c-2 -20 -9 -29 -26 -31
-30 -5 -42 26 -17 44 31 23 47 17 43 -13z"/>
<path d="M533 283 c-7 -2 -13 -18 -13 -34 0 -22 7 -32 33 -45 56 -29 59 -58 4
-52 -39 4 -48 -19 -11 -28 45 -11 79 6 82 44 3 28 -1 34 -33 49 -43 20 -44 50
-2 45 19 -2 27 2 27 13 0 11 -10 15 -37 14 -21 0 -44 -3 -50 -6z"/>
<path d="M850 283 c0 -4 14 -42 31 -85 33 -80 33 -108 -1 -108 -11 0 -20 -7
-20 -15 0 -8 7 -15 16 -15 32 0 53 21 72 72 11 29 29 77 41 106 20 51 20 52 1
52 -14 0 -23 -13 -36 -55 -10 -30 -21 -55 -24 -55 -4 0 -16 24 -27 53 -11 29
-27 53 -37 55 -9 2 -16 0 -16 -5z"/>
<path d="M1050 274 c0 -11 6 -13 20 -9 21 7 60 -10 60 -25 0 -6 -12 -10 -28
-10 -41 0 -72 -26 -72 -61 0 -37 40 -57 78 -39 18 8 28 8 38 -1 22 -18 24 -9
15 70 -8 81 -16 91 -73 91 -28 0 -38 -4 -38 -16z m78 -91 c-2 -22 -9 -29 -31
-31 -18 -2 -29 2 -34 14 -7 19 20 44 50 44 14 0 18 -6 15 -27z"/>
<path d="M565 100 c3 -5 8 -10 11 -10 2 0 4 5 4 10 0 6 -5 10 -11 10 -5 0 -7
-4 -4 -10z"/>
<path d="M95 81 c-3 -5 -1 -12 5 -16 6 -4 8 -11 5 -16 -4 -5 -1 -9 4 -9 14 0
14 17 0 26 -8 4 -7 9 2 15 10 6 10 9 2 9 -6 0 -14 -4 -18 -9z"/>
<path d="M174 75 c-3 -8 -4 -20 -2 -27 3 -7 7 -1 10 15 6 29 1 36 -8 12z"/>
<path d="M418 65 c6 -31 8 -31 14 0 3 16 1 25 -7 25 -8 0 -10 -9 -7 -25z"/>
<path d="M202 60 c0 -14 2 -19 5 -12 2 6 2 18 0 25 -3 6 -5 1 -5 -13z"/>
<path d="M522 60 c0 -14 2 -19 5 -12 2 6 2 18 0 25 -3 6 -5 1 -5 -13z"/>
<path d="M131 58 c-1 -10 6 -18 14 -18 8 0 15 8 15 18 0 13 -2 14 -9 3 -7 -11
-9 -11 -14 0 -4 10 -6 9 -6 -3z"/>
<path d="M228 51 c3 -9 7 -11 9 -4 3 7 11 9 19 6 8 -3 14 -1 14 4 0 5 -11 9
-24 9 -17 0 -22 -4 -18 -15z"/>
<path d="M287 63 c-12 -11 -8 -23 8 -23 8 0 15 7 15 15 0 16 -12 20 -23 8z"/>
<path d="M321 54 c0 -11 3 -14 6 -6 3 7 2 16 -1 19 -3 4 -6 -2 -5 -13z"/>
<path d="M351 54 c0 -11 3 -14 6 -6 3 7 2 16 -1 19 -3 4 -6 -2 -5 -13z"/>
<path d="M445 50 c3 -5 8 -10 11 -10 2 0 4 5 4 10 0 6 -5 10 -11 10 -5 0 -7
-4 -4 -10z"/>
</g>
</svg>
